<?xml version="1.0" encoding="utf-8"?>
<!-- Generator: Adobe Illustrator 25.4.1, SVG Export Plug-In . SVG Version: 6.00 Build 0)  -->
<svg version="1.1" id="Layer_1" xmlns="http://www.w3.org/2000/svg" xmlns:xlink="http://www.w3.org/1999/xlink" x="0px" y="0px"
	 viewBox="0 0 90 87" style="enable-background:new 0 0 90 87;" xml:space="preserve">
<style type="text/css">
	.st0{fill:#2A50A0;}
	.st1{fill:url(#SVGID_1_);}
	.st2{fill:#FFFFFF;}
	.st3{fill:url(#SVGID_00000168805933665989696720000002587386043700245434_);}
	.st4{fill:#ECEDEF;}
	.st5{font-family:'BodoniBT-Book';}
	.st6{font-size:9.2038px;}
	.st7{fill:none;stroke:#2A50A0;stroke-width:0.75;stroke-miterlimit:10;}
	.st8{fill:url(#SVGID_00000011733392265871241020000018432858407947194241_);}
	.st9{fill:url(#SVGID_00000160892097070552804180000004836014660599099567_);}
</style>
<g id="Layer_2_00000021837716415458206190000004406606511122171556_">
</g>
<g id="Layer_1_00000013162542532738211530000005000436261249807789_">
	<g>
		<path class="st0" d="M18.8,39.8l-5.1,9.4h10.7v-6.4c0-2.5,0.2-5.7,0.3-8.6c0.1-0.9,0.1-1.8,0.2-2.5l0.1-1h-2.1l-0.2,0.6
			C21.4,34.2,20,36.9,18.8,39.8z M22.4,42.8v4.4H17l3.5-6.6v-0.1c0.7-1.5,1.4-2.9,2.1-4.4C22.4,38.6,22.4,40.9,22.4,42.8z M87,43.5
			c0,20.6-16.8,37.2-37.4,37.2c-9.9,0-19.2-3.8-26.2-10.7c-0.3-0.3-0.8-0.9-1.1-1.1v-10H2.2V48.7l0.2-0.2l16.4-28.1h17.6v26.9h5.1
			V59h-6.1v-1.9h4.1v-7.7h-5.1V22.3H19.9L4.2,49.2v7.7h20.2V68c0.2,0.2,0.3,0.4,0.5,0.5c6.7,6.6,15.5,10.1,24.8,10.1
			C69.2,78.6,85,62.8,85,43.4S69.1,8.3,49.6,8.3c-7.8,0-15.3,2.5-21.5,7.2L27,14c6.5-4.9,14.4-7.6,22.7-7.6C70.3,6.3,87,23,87,43.5z
			"/>
		<g>
			<g transform="matrix(1 0 0 1 197.5247 55.8376)">
			</g>
			<g transform="matrix(1 0 0 1 197.4754 49.5476)">
			</g>
		</g>
		<g>
			
				<radialGradient id="SVGID_1_" cx="157.7332" cy="-139.8453" r="15.3488" gradientTransform="matrix(2.3384 0 0 -2.3326 -314.1725 -281.4097)" gradientUnits="userSpaceOnUse">
				<stop  offset="0" style="stop-color:#838282"/>
				<stop  offset="0.3173" style="stop-color:#858484;stop-opacity:0.6827"/>
				<stop  offset="0.4942" style="stop-color:#8D8C8C;stop-opacity:0.5058"/>
				<stop  offset="0.6366" style="stop-color:#9A9A9A;stop-opacity:0.3634"/>
				<stop  offset="0.7606" style="stop-color:#ADADAE;stop-opacity:0.2394"/>
				<stop  offset="0.8726" style="stop-color:#C6C6C7;stop-opacity:0.1274"/>
				<stop  offset="0.9745" style="stop-color:#E3E4E6;stop-opacity:2.551991e-02"/>
				<stop  offset="1" style="stop-color:#ECEDEF;stop-opacity:0"/>
			</radialGradient>
			<path class="st1" d="M38.8,58.9c0.1,0.4,0.2,0.9,0.4,1.5c0.5,1.5,0.8,2.5,1.2,3.3c0.5,0.7,0.8,0.8,2,2c0,0,1,1,3.1,3.1
				c1.2,1.2,2.5,2.5,3.7,3.7c1.1,1,2.1,2.1,3.2,3.1c0.7,0.7,1.2,1.2,1.9,1.9c0.2,0.1,0.5,0.1,0.9,0.1c0.2,0,0.4,0,0.7-0.1
				C68.7,75.3,82.4,65,83.7,48.8c0.1-0.5-0.1,0.2-0.1-0.3L70,34.9C69.9,35,46,53.1,46,53.1l-2,1.5c-0.5,0.3-0.9,0.7-1.2,1
				c-0.6,0.5-1.1,0.9-1.7,1.3c-0.5,0.4-1,0.8-1.5,1.1C39.3,58.4,39,58.6,38.8,58.9z"/>
			<g>
				<g>
					<g>
						<g>
							<g>
								<path class="st2" d="M77.9,51.1c0,11.5-9.4,20.8-20.9,20.8s-21-9.4-21-20.8s9.4-20.8,20.9-20.8S77.9,39.6,77.9,51.1z"/>
							</g>
						</g>
					</g>
					<g>
						
							<radialGradient id="SVGID_00000091694274165222529550000011898036818759831204_" cx="151.3258" cy="-134.1698" r="25.8649" gradientTransform="matrix(2.3384 0 0 -2.3326 -314.1725 -281.4097)" gradientUnits="userSpaceOnUse">
							<stop  offset="0" style="stop-color:#F6F7F8"/>
							<stop  offset="0.4766" style="stop-color:#FAFBFB"/>
							<stop  offset="0.7151" style="stop-color:#FFFFFF"/>
						</radialGradient>
						<path style="fill:url(#SVGID_00000091694274165222529550000011898036818759831204_);" d="M77.9,51.1c0-5.3-2-10.2-5.2-13.8
							c-3.8-4-9.1-6.5-15.1-6.5c-11.6,0-20.9,9.4-20.9,20.8c0,5.3,2,10.2,5.2,13.8c3.8,4,9.1,6.5,15.1,6.5
							C68.4,72,77.9,62.6,77.9,51.1z"/>
					</g>
					<g>
						<g>
							<path class="st4" d="M75.8,42c1.1,2.6,1.8,5.4,1.8,8.5c0,11.5-9.4,20.8-20.9,20.8c-6.9,0-13.1-3.4-16.9-8.6
								c0.6,1,1.3,1.9,2.1,2.8C45.7,69.5,51,72,57,72c11.6,0,20.9-9.4,20.9-20.8C77.9,47.9,77.1,44.7,75.8,42z"/>
						</g>
					</g>
				</g>
			</g>
		</g>
		<path class="st0" d="M55.6,49.3h-4.1V19.9h-5.9l-0.2,0.2c-2,1.8-3.8,2.8-6.7,3.5l-0.4,0.1v7.7h4.9v17.9h-5.6V59
			c0.5,0,16.8,0,17.9,0l0,0h1.1v-9.8h-1V49.3z M55.6,57.7c-0.2,0-0.3,0-0.4,0c-0.2,0-0.4,0-0.5,0c-0.3,0-6.4-0.1-15.9-0.1
			c0-2.2,0-4.4,0-6.7h5.6v-21h-4.9V25c2.7-0.8,4.5-1.8,6.4-3.5h4.5v29.4h5.3L55.6,57.7L55.6,57.7z"/>
		<path class="st0" d="M74.9,49.3h-4.1V19.9h-5.9l-0.2,0.2c-2,1.8-3.8,2.8-6.7,3.5l-0.4,0.1v7.7h4.9v17.9h-5.6V59
			c0.5,0,16.8,0,17.9,0l0,0h1.1v-9.8h-1V49.3z M74.9,57.7c-0.2,0-0.3,0-0.4,0c-0.2,0-0.4,0-0.5,0c-0.3,0-6.4-0.1-15.9-0.1
			c0-2.2,0-4.4,0-6.7h5.6v-21h-4.9V25c2.7-0.8,4.5-1.8,6.4-3.5h4.5v29.4h5.2L74.9,57.7L74.9,57.7z"/>
		<text transform="matrix(0.7617 0 0 1 24.9383 67.3045)" class="st0 st5 st6">What  is  the  411?</text>
		<text transform="matrix(0.7617 0 0 1 24.9383 67.3045)" class="st7 st5 st6">What  is  the  411?</text>
	</g>
</g>
<text transform="matrix(0.7119 0 0 1 -10.4614 -144.0767)" class="st0" style="font-family:'Cabin-Bold'; font-size:101.4235px;">WHAT IS THE 411?</text>
<path class="st0" d="M-114.5,284l-6.6,12.3h14V288c0-3.2,0.2-7.4,0.4-11.2c0.1-1.2,0.1-2.3,0.2-3.3l0.1-1.3h-2.7l-0.3,0.8
	C-111.1,276.7-112.9,280.3-114.5,284z M-109.8,288v5.7h-7l4.6-8.6V285c0.9-1.9,1.8-3.8,2.7-5.7C-109.7,282.5-109.8,285.5-109.8,288z
	 M-25.5,288.9c0,26.8-21.9,48.5-48.7,48.5c-12.9,0-25-5-34.2-14c-0.4-0.4-1.1-1.2-1.4-1.5v-13h-26.3v-13.3l0.2-0.3l21.4-36.7h22.9
	v35.1h6.6v15.2h-7.9v-2.5h5.3v-10.1h-6.6v-35.1H-113l-20.5,35.1v10h26.3v14.5c0.2,0.2,0.4,0.5,0.7,0.7c8.7,8.6,20.2,13.2,32.3,13.2
	c25.4,0,46.1-20.6,46.1-45.9s-20.7-45.9-46.1-45.9c-10.2,0-19.9,3.3-28,9.4l-1.5-2c8.5-6.4,18.8-9.9,29.6-9.9
	C-47.3,240.4-25.5,262.1-25.5,288.9z"/>
<g transform="matrix(1 0 0 1 197.5247 55.8376)">
</g>
<g transform="matrix(1 0 0 1 197.4754 49.5476)">
</g>
<radialGradient id="SVGID_00000139288836043455682540000009369132910855457711_" cx="105.4369" cy="-245.2497" r="20.0237" gradientTransform="matrix(2.3384 0 0 -2.3326 -314.1725 -281.4097)" gradientUnits="userSpaceOnUse">
	<stop  offset="0" style="stop-color:#838282"/>
	<stop  offset="0.3173" style="stop-color:#858484;stop-opacity:0.6827"/>
	<stop  offset="0.4942" style="stop-color:#8D8C8C;stop-opacity:0.5058"/>
	<stop  offset="0.6366" style="stop-color:#9A9A9A;stop-opacity:0.3634"/>
	<stop  offset="0.7606" style="stop-color:#ADADAE;stop-opacity:0.2394"/>
	<stop  offset="0.8726" style="stop-color:#C6C6C7;stop-opacity:0.1274"/>
	<stop  offset="0.9745" style="stop-color:#E3E4E6;stop-opacity:2.551991e-02"/>
	<stop  offset="1" style="stop-color:#ECEDEF;stop-opacity:0"/>
</radialGradient>
<path style="fill:url(#SVGID_00000139288836043455682540000009369132910855457711_);" d="M-88.4,308.9c0.1,0.5,0.3,1.2,0.5,1.9
	c0.6,1.9,1,3.2,1.6,4.3c0.6,0.9,1,1.1,2.6,2.6c0,0,1.3,1.3,4,4c1.6,1.6,3.3,3.2,4.8,4.8c1.4,1.3,2.8,2.8,4.2,4.1
	c0.9,0.9,1.6,1.6,2.5,2.5c0.3,0.1,0.7,0.1,1.2,0.1c0.2,0,0.5,0,0.9-0.1c16.7-2.7,34.6-16.2,36.3-37.3c0.1-0.6-0.1,0.2-0.1-0.4
	l-17.7-17.7c-0.1,0.1-31.3,23.7-31.3,23.7l-2.6,2c-0.6,0.4-1.2,0.9-1.6,1.3c-0.8,0.6-1.4,1.2-2.2,1.7c-0.7,0.5-1.3,1-1.9,1.4
	C-87.7,308.3-88.1,308.6-88.4,308.9z"/>
<g>
	<g>
		<g>
			<g>
				<g>
					<path class="st2" d="M-37.4,298.8c0,15-12.2,27.2-27.3,27.2s-27.4-12.2-27.4-27.2s12.2-27.2,27.3-27.2
						C-49.7,271.6-37.4,283.8-37.4,298.8z"/>
				</g>
			</g>
		</g>
		<g>
			
				<radialGradient id="SVGID_00000170274670010234438380000010180932017360297636_" cx="97.0779" cy="-237.8456" r="33.7427" gradientTransform="matrix(2.3384 0 0 -2.3326 -314.1725 -281.4097)" gradientUnits="userSpaceOnUse">
				<stop  offset="0" style="stop-color:#F6F7F8"/>
				<stop  offset="0.4766" style="stop-color:#FAFBFB"/>
				<stop  offset="0.7151" style="stop-color:#FFFFFF"/>
			</radialGradient>
			<path style="fill:url(#SVGID_00000170274670010234438380000010180932017360297636_);" d="M-37.4,298.8c0-6.9-2.6-13.3-6.8-18
				c-5-5.2-11.9-8.5-19.7-8.5c-15.1,0-27.3,12.2-27.3,27.2c0,6.9,2.6,13.3,6.8,18c5,5.2,11.9,8.5,19.7,8.5
				C-49.7,326.1-37.4,313.8-37.4,298.8z"/>
		</g>
		<g>
			<g>
				<path class="st4" d="M-40.1,286.9c1.5,3.4,2.3,7.1,2.3,11.1c0,15-12.2,27.2-27.3,27.2c-9,0-17.1-4.4-22-11.2
					c0.8,1.3,1.7,2.5,2.7,3.7c5,5.2,11.9,8.5,19.7,8.5c15.1,0,27.3-12.2,27.3-27.2C-37.4,294.6-38.4,290.4-40.1,286.9z"/>
			</g>
		</g>
	</g>
</g>
<path class="st0" d="M-66.4,296.5h-5.4v-38.4h-7.7l-0.2,0.2c-2.6,2.3-5,3.7-8.7,4.6l-0.6,0.2v10.1h6.4v23.4h-7.3v12.7
	c0.6,0,21.9,0,23.3,0l0,0h1.4v-12.8L-66.4,296.5L-66.4,296.5z M-66.4,307.4c-0.2,0-0.4,0-0.5,0c-0.3,0-0.5,0-0.7,0
	c-0.4,0-8.4-0.1-20.7-0.1c0-2.9,0-5.8,0-8.7h7.3v-27.5h-6.4v-6.4c3.5-1.1,5.9-2.4,8.4-4.6h5.9v38.4h6.8L-66.4,307.4L-66.4,307.4z"/>
<path class="st0" d="M-41.4,296.7l-5.4-0.1l0.5-38.4l-7.7-0.1l-0.2,0.2c-2.6,2.3-5.1,3.6-8.8,4.5l-0.6,0.2l-0.1,10.1l6.4,0.1
	l-0.3,23.4l-7.3-0.1l-0.2,12.7c0.6,0,21.9,0.3,23.3,0.3l0,0h1.4l0.2-12.8L-41.4,296.7z M-41.5,307.6c-0.2,0-0.4,0-0.5,0
	c-0.3,0-0.5,0-0.7,0c-0.4,0-8.4-0.2-20.7-0.4c0-2.9,0.1-5.8,0.1-8.7l7.3,0.1l0.4-27.5L-62,271l0.1-6.4c3.5-1.1,5.9-2.3,8.5-4.5
	l5.9,0.1l-0.5,38.4l6.8,0.1L-41.5,307.6L-41.5,307.6z"/>
<text transform="matrix(0.7617 0 0 1 -106.4072 320.0283)" class="st0 st5" style="font-size:12.0071px;">What  is  the  411?</text>
<text transform="matrix(0.9158 0 0 1 -577.9004 -155.7271)" class="st0 st5" style="font-size:86.4549px;">What  is  the  411?</text>
<text transform="matrix(0.9158 0 0 1 -577.9004 -155.7271)" class="st5" style="fill:none;stroke:#2A50A0;stroke-width:2;stroke-miterlimit:10; font-size:86.4549px;">What  is  the  411?</text>
</svg>
